<svg width="314" height="378" viewBox="0 0 314 378" fill="none" xmlns="http://www.w3.org/2000/svg">
<path d="M190.23 38.9453C208.348 38.9455 223.567 51.3806 227.855 68.4023C228.977 68.2847 230.081 68.2256 231.185 68.2256C231.358 68.2256 231.512 68.2369 231.587 68.2422C231.608 68.2436 231.624 68.2442 231.637 68.2451C231.649 68.2442 231.665 68.2436 231.686 68.2422C231.764 68.2367 231.917 68.2256 232.091 68.2256C232.551 68.2256 232.966 68.2792 233.284 68.3291C252.754 69.4356 268.248 85.674 268.248 105.521C268.248 106.805 268.173 108.089 268.024 109.381C284.641 113.073 297.091 128.01 297.091 145.809C297.091 147.617 296.933 149.44 296.624 151.302C307.184 160.493 313.341 173.869 313.341 188.101C313.341 200.031 308.878 211.504 300.939 220.396C308.819 230.393 313.118 242.638 313.118 255.367C313.118 273.356 304.847 289.834 290.712 300.589C291.685 304.577 292.091 308.612 291.916 312.646L291.865 313.57C291.104 325.326 285.839 336.098 277.036 343.876L276.203 344.594C267.522 351.896 256.548 355.48 245.242 354.753L245.236 354.752C243.978 354.668 242.708 354.515 241.418 354.296C232.687 368.741 217.062 377.76 199.904 377.76C181.7 377.76 165.292 367.726 156.67 352.785C148.048 367.725 131.64 377.76 113.437 377.76C96.2787 377.76 80.6544 368.741 71.9229 354.296C70.6329 354.515 69.3634 354.668 68.1045 354.752L68.0986 354.753C56.7923 355.48 45.8187 351.896 37.1377 344.594L36.3047 343.876C27.502 336.098 22.237 325.326 21.4756 313.57L21.4248 312.646C21.2498 308.612 21.6554 304.577 22.6289 300.589C8.49353 289.834 0.222745 273.356 0.222656 255.367C0.222709 242.638 4.52141 230.393 12.4014 220.396C4.4633 211.504 0.000102642 200.031 0 188.101C0 173.869 6.1564 160.493 16.7168 151.302C16.4077 149.44 16.25 147.617 16.25 145.809C16.2502 128.01 28.6999 113.073 45.3164 109.381C45.168 108.089 45.0928 106.805 45.0928 105.521C45.093 85.6738 60.5864 69.4354 80.0566 68.3291C80.3746 68.2792 80.7898 68.2256 81.25 68.2256C81.424 68.2256 81.577 68.2367 81.6553 68.2422C81.6759 68.2436 81.6914 68.2442 81.7041 68.2451C81.7171 68.2442 81.7329 68.2437 81.7539 68.2422C81.8292 68.2369 81.9829 68.2256 82.1562 68.2256C83.2596 68.2256 84.3635 68.2847 85.4854 68.4023C89.7736 51.3805 104.993 38.9453 123.11 38.9453C136.704 38.9454 149.384 44.7192 156.67 54.751C163.955 44.7189 176.636 38.9454 190.23 38.9453ZM123.106 55.459C112.145 55.459 102.999 63.3919 101.099 74.0674C111.426 80.6871 118.309 92.296 118.31 105.518C118.309 110.064 114.648 113.776 110.09 113.776C105.532 113.776 101.87 110.064 101.87 105.518C101.87 94.2016 92.8461 85.0044 81.6982 84.7588C70.552 85.0019 61.5293 94.2024 61.5293 105.515C61.5294 107.541 61.9064 109.711 62.7451 112.182C63.07 113.124 63.2176 114.112 63.1904 115.097L63.1895 115.106V115.116C63.1887 115.136 63.1856 115.157 63.1846 115.178C63.6931 117.488 63.1888 119.9 61.8076 121.807L61.5059 122.197C59.829 124.244 57.2854 125.355 54.6348 125.189L54.623 125.188C54.2091 125.161 53.8147 125.111 53.4619 125.064C41.8603 125.104 32.6895 134.401 32.6895 145.806C32.6895 147.429 32.9392 149.139 33.5186 151.177L33.7871 152.071L33.8828 152.399C34.8035 155.79 33.4891 159.425 30.5527 161.415L30.5537 161.416C22.0954 167.155 16.9433 176.552 16.5234 186.76C18.0963 199.523 22.8553 206.589 26.3281 211.831C28.0051 214.362 29.7597 216.967 30.2764 219.653C30.871 222.746 29.8244 225.544 27.2441 228.374C20.418 235.86 16.6622 245.416 16.6621 255.363C16.6622 266.852 21.4405 277.455 29.7471 285.041C38.1261 273.452 51.5734 266.36 66.3301 266.36C70.8892 266.361 74.5498 270.077 74.5498 274.619C74.5496 279.161 70.8892 282.878 66.3301 282.878C54.7022 282.878 44.785 289.388 40.0762 299.952C40.0496 300.057 40.0137 300.184 39.958 300.321C38.305 304.4 37.6216 308.49 37.8818 312.489L37.9346 313.18C38.5471 320.057 41.6182 326.331 46.6553 331.002L47.166 331.464V331.465C52.6756 336.333 59.7096 338.745 67.0303 338.262L67.7812 338.198C69.2965 338.042 70.9051 337.709 72.7588 337.151L73.707 336.854C74.5609 336.571 75.4234 336.445 76.2568 336.445C79.3849 336.445 82.3198 338.245 83.6973 341.193L83.8252 341.482L83.8262 341.484C88.8849 353.491 100.514 361.234 113.443 361.234C121.727 361.234 130.242 358.116 136.979 352.921C142.861 348.386 147.253 342.377 149.03 335.676V71.4834C145.616 61.4871 134.75 55.4591 123.106 55.459ZM190.234 55.459C178.406 55.4591 167.38 61.6797 164.153 71.9619C164.116 72.0818 164.074 72.2007 164.03 72.3193V334.502C165.586 341.674 170.139 348.122 176.361 352.921C183.098 358.116 191.614 361.234 199.897 361.234C212.826 361.234 224.456 353.491 229.515 341.484L229.516 341.482L229.644 341.193C231.021 338.245 233.956 336.445 237.084 336.445C237.917 336.445 238.78 336.571 239.634 336.854L240.582 337.151C242.436 337.709 244.044 338.042 245.56 338.198L246.311 338.262C253.631 338.745 260.665 336.333 266.175 331.465V331.464L266.686 331.002C271.723 326.331 274.794 320.057 275.406 313.18L275.459 312.489C275.719 308.49 275.036 304.4 273.383 300.321C273.327 300.184 273.291 300.057 273.265 299.952C268.556 289.388 258.638 282.878 247.011 282.878C242.452 282.878 238.791 279.161 238.791 274.619C238.791 270.077 242.452 266.361 247.011 266.36C261.767 266.36 275.215 273.452 283.594 285.041C291.9 277.455 296.679 266.852 296.679 255.363C296.679 245.416 292.923 235.86 286.097 228.374C283.516 225.544 282.47 222.746 283.064 219.653C283.581 216.967 285.336 214.363 287.013 211.831C290.486 206.589 295.245 199.523 296.817 186.76C296.397 176.552 291.245 167.155 282.787 161.416L282.788 161.415C279.852 159.425 278.537 155.79 279.458 152.399L279.554 152.071L279.822 151.177C280.402 149.139 280.651 147.429 280.651 145.806C280.651 134.401 271.48 125.104 259.879 125.064C259.526 125.111 259.132 125.161 258.718 125.188L258.706 125.189C256.056 125.355 253.512 124.244 251.835 122.197L251.533 121.807C250.152 119.9 249.648 117.488 250.156 115.178C250.155 115.157 250.152 115.136 250.151 115.116V115.106L250.15 115.097C250.123 114.112 250.271 113.124 250.596 112.182C251.434 109.711 251.811 107.541 251.812 105.515C251.812 94.2025 242.789 85.0021 231.643 84.7588C220.495 85.0044 211.471 94.2016 211.471 105.518C211.471 110.064 207.809 113.776 203.251 113.776C198.693 113.776 195.031 110.064 195.031 105.518C195.031 92.2959 201.915 80.6871 212.242 74.0674C210.342 63.392 201.196 55.4592 190.234 55.459ZM40.1357 299.655C40.1365 299.651 40.138 299.647 40.1387 299.643L40.1484 299.576C40.1472 299.585 40.1417 299.615 40.1357 299.655ZM273.202 299.643C273.203 299.647 273.204 299.651 273.205 299.655C273.199 299.615 273.194 299.585 273.192 299.576L273.202 299.643Z" fill="#FF7063"/>
<path d="M156.076 283.627C149.538 283.627 142.822 282.955 135.926 281.612C129.121 280.269 122.807 278.164 116.986 275.299C111.165 272.433 106.464 268.716 102.882 264.149C99.3894 259.493 97.6431 253.896 97.6431 247.358C97.6431 241.538 99.4789 236.747 103.151 232.985C106.822 229.224 111.121 227.344 116.046 227.344C121.061 227.344 125.315 228.732 128.807 231.508C132.389 234.284 134.18 238.314 134.18 243.597C134.18 248.164 132.837 251.97 130.15 255.015C127.464 257.97 124.419 259.448 121.016 259.448C124.419 261.955 129.031 264.06 134.852 265.761C140.762 267.373 146.673 268.179 152.583 268.179C158.852 268.179 164.896 267.508 170.717 266.164C176.538 264.731 181.329 262.314 185.09 258.911C188.851 255.418 190.732 250.627 190.732 244.538C190.732 240.239 189.389 236.433 186.702 233.12C184.105 229.717 180.657 227.03 176.359 225.06C172.061 223.09 167.135 221.12 161.583 219.15C156.12 217.18 150.523 215.478 144.792 214.045C137.27 212.075 129.971 209.478 122.897 206.254C115.912 202.941 110.136 198.598 105.568 193.224C101.091 187.851 98.8521 181.09 98.8521 172.941C98.8521 163.717 101.628 156.105 107.18 150.105C112.822 144.016 119.941 139.493 128.538 136.538C137.225 133.494 146.135 131.971 155.27 131.971C161.001 131.971 167.135 132.643 173.672 133.986C180.299 135.24 186.523 137.21 192.344 139.896C198.254 142.583 203.09 145.986 206.851 150.105C210.613 154.225 212.493 159.15 212.493 164.881C212.493 170.881 210.747 175.762 207.254 179.523C203.851 183.195 199.822 185.03 195.165 185.03C190.06 185.03 185.717 183.508 182.135 180.463C178.553 177.329 176.762 173.075 176.762 167.702C176.762 164.031 177.658 161.165 179.449 159.105C181.329 156.956 183.837 154.852 186.971 152.792C178.105 148.493 168.075 146.344 156.882 146.344C147.658 146.344 139.867 148.359 133.509 152.389C127.15 156.419 123.971 162.105 123.971 169.449C123.971 172.941 125.27 176.075 127.867 178.851C130.553 181.538 134.091 183.687 138.479 185.299C142.777 187.001 147.658 188.792 153.12 190.672C158.673 192.463 164.359 194.12 170.18 195.642C176.001 197.254 181.643 199.404 187.105 202.09C192.657 204.687 197.628 207.553 202.016 210.687C206.314 213.821 209.762 217.941 212.359 223.045C215.045 228.15 216.389 233.926 216.389 240.373C216.389 248.881 214.598 255.955 211.015 261.597C207.523 267.149 202.822 271.537 196.911 274.761C191.001 277.985 184.508 280.269 177.434 281.612C170.359 282.955 163.24 283.627 156.076 283.627Z" fill="#FF7063"/>
</svg>
